<svg width="99" height="71" viewBox="0 0 99 71" fill="none" xmlns="http://www.w3.org/2000/svg">
<path d="M11.78 38.252V54H3.1V13.886H11.78V30.688H18.662V13.886H27.342V54H18.662V38.252H11.78ZM41.6771 19.962C40.8091 20.83 39.7551 21.264 38.5151 21.264C37.2751 21.264 36.2004 20.83 35.2911 19.962C34.3817 19.0527 33.9271 17.978 33.9271 16.738C33.9271 15.4567 34.3817 14.382 35.2911 13.514C36.2004 12.6047 37.2751 12.15 38.5151 12.15C39.7551 12.15 40.8091 12.6047 41.6771 13.514C42.5864 14.382 43.0411 15.4567 43.0411 16.738C43.0411 18.0193 42.5864 19.094 41.6771 19.962ZM34.3611 54V23.744H42.6691V54H34.3611ZM62.4529 23.744H70.5129L63.8789 54H52.9049L46.2709 23.744H54.3309L58.4229 47.242L62.4529 23.744ZM88.8082 23.124C93.9336 23.124 96.4962 25.852 96.4962 31.308V41.104H82.4222V47.428C82.4222 47.7587 82.5256 48.048 82.7322 48.296C82.9802 48.544 83.2696 48.668 83.6002 48.668H87.0102C87.3409 48.668 87.6096 48.544 87.8162 48.296C88.0642 48.048 88.1882 47.7587 88.1882 47.428V44.08H96.4962V46.436C96.4962 51.892 93.9336 54.62 88.8082 54.62H81.8022C76.6769 54.62 74.1142 51.892 74.1142 46.436V31.308C74.1142 25.852 76.6769 23.124 81.8022 23.124H88.8082ZM82.4222 35.648H88.1882V30.068C88.1882 29.7373 88.0642 29.448 87.8162 29.2C87.6096 28.952 87.3409 28.828 87.0102 28.828H83.6002C83.2696 28.828 82.9802 28.952 82.7322 29.2C82.5256 29.448 82.4222 29.7373 82.4222 30.068V35.648Z" fill="#3F51B5"/>
<g clip-path="url(#clip0_208_7)">
<circle cx="7.5" cy="65.5" r="5.5" fill="#FF3131"/>
<circle cx="28.5" cy="65.5" r="5.5" fill="#FF3131"/>
<circle cx="49.5" cy="65.5" r="5.5" fill="#FF3131"/>
<circle cx="70.5" cy="65.5" r="5.5" fill="#FF3131"/>
<circle cx="91.5" cy="65.5" r="5.5" fill="#FF3131"/>
</g>
<defs>
<clipPath id="clip0_208_7">
<rect width="95" height="11" fill="white" transform="translate(2 60)"/>
</clipPath>
</defs>
</svg>
