<svg width="150" height="146" viewBox="0 0 150 146" fill="none" xmlns="http://www.w3.org/2000/svg">
<path d="M26.1987 37.4486C26.1987 34.6872 28.4373 32.4486 31.1987 32.4486H48.5841C49.953 32.4486 51.262 33.0099 52.2058 34.0014L71.6353 54.4142C73.6059 56.4845 76.908 56.4846 78.8786 54.4142L98.3081 34.0014C99.2519 33.0099 100.561 32.4486 101.93 32.4486H119.315C122.077 32.4486 124.315 34.6872 124.315 37.4486V125.565C124.315 128.326 122.077 130.565 119.315 130.565H104.786C102.025 130.565 99.7861 128.326 99.7861 125.565V83.8185V68.896C99.7861 64.266 94.0357 62.123 91.0055 65.6238L79.0375 79.4508C77.0435 81.7544 73.4704 81.7544 71.4764 79.4508L59.5084 65.6238C56.4782 62.123 50.7278 64.266 50.7278 68.896V83.8185V107.192V125.565C50.7278 128.326 48.4893 130.565 45.7278 130.565H38.4633H31.1987C28.4373 130.565 26.1987 128.326 26.1987 125.565V37.4486Z" fill="#001C30"/>
<rect x="99.6577" y="11.3014" width="24.8288" height="17.4658" rx="8.73288" fill="#001C30"/>
</svg>
